<svg width="19" height="21" viewBox="0 0 19 21" fill="none" xmlns="http://www.w3.org/2000/svg">
<path d="M9.33303 21C9.3035 21 9.27391 20.9974 9.24469 20.9922C3.80156 20.0293 0 16.7249 0 12.9566V0.506951C0 0.226987 0.226987 0 0.506951 0H18.159C18.439 0 18.666 0.226987 18.666 0.506951V12.9566C18.666 16.7249 14.8644 20.0293 9.4213 20.9922C9.39209 20.9974 9.36256 21 9.33303 21ZM1.0139 1.0139V12.9566C1.0139 14.5468 1.82021 16.0655 3.34569 17.3483C4.85222 18.6152 6.97571 19.5473 9.33297 19.9779C11.6903 19.5473 13.8137 18.6152 15.3202 17.3483C16.8457 16.0655 17.652 14.5468 17.652 12.9566V1.0139H1.0139ZM9.3329 15.3268C9.28221 15.3268 9.23126 15.3192 9.18177 15.3038L3.64796 13.5749C3.4363 13.5087 3.2922 13.3127 3.2922 13.091V5.01571C3.2922 4.85444 3.36894 4.70279 3.49885 4.6073C3.62875 4.5118 3.79649 4.48379 3.95035 4.53183L9.33297 6.21351L14.7157 4.53183C14.8696 4.48373 15.0372 4.51174 15.1672 4.6073C15.2971 4.70279 15.3739 4.85444 15.3739 5.01571V13.0909C15.3739 13.3127 15.2298 13.5087 15.0181 13.5748L9.48423 15.3037C9.43467 15.3192 9.38373 15.3268 9.33309 15.3268C9.33297 15.3268 9.3329 15.3268 9.3329 15.3268ZM9.83998 7.11734V14.1304L14.36 12.7183V5.70523L9.83998 7.11734ZM4.30611 12.7183L8.82595 14.1304V7.11734L4.30611 5.70523V12.7183ZM11.2215 11.0863C11.0057 11.0863 10.8056 10.9473 10.7378 10.7304C10.6543 10.4632 10.8033 10.1788 11.0705 10.0953L12.8269 9.54658C13.0944 9.463 13.3784 9.61211 13.462 9.87927C13.5454 10.1465 13.3965 10.4308 13.1293 10.5144L11.3729 11.0631C11.3226 11.0788 11.2716 11.0863 11.2215 11.0863ZM7.44445 11.0863C7.39432 11.0863 7.34344 11.0788 7.29312 11.0631L5.53679 10.5144C5.26957 10.4308 5.12058 10.1465 5.20411 9.87927C5.28763 9.61204 5.57202 9.46319 5.83919 9.54658L7.59552 10.0953C7.86275 10.1788 8.01173 10.4632 7.92821 10.7304C7.8604 10.9472 7.66028 11.0863 7.44445 11.0863ZM11.2215 9.04039C11.0057 9.04039 10.8056 8.90143 10.7379 8.68451C10.6543 8.41729 10.8033 8.13295 11.0705 8.04949L12.8269 7.50072C13.094 7.41701 13.3785 7.56612 13.462 7.83341C13.5455 8.10063 13.3965 8.38497 13.1293 8.46843L11.3729 9.0172C11.3226 9.03292 11.2717 9.04039 11.2215 9.04039ZM7.44445 9.04039C7.39432 9.04039 7.34344 9.03292 7.29312 9.0172L5.53679 8.46843C5.26957 8.38497 5.12058 8.10057 5.20411 7.83341C5.28763 7.56618 5.57215 7.4172 5.83912 7.50072L7.59546 8.04949C7.86268 8.13295 8.01166 8.41735 7.92814 8.68451C7.8604 8.90136 7.66028 9.04039 7.44445 9.04039Z" fill="black"/>
</svg>
