<svg width="28" height="23" viewBox="0 0 28 23" fill="none" xmlns="http://www.w3.org/2000/svg">
<path d="M27.7323 5.20639L18.8781 1.83072C18.6634 1.74891 18.4231 1.85657 18.3412 2.07105C18.2594 2.28574 18.3671 2.52607 18.5818 2.60788L26.4168 5.59497L20.993 7.66306L14.1715 4.5745C13.9622 4.47965 13.7159 4.57257 13.6212 4.78171C13.5264 4.99106 13.6193 5.23737 13.8285 5.33222L19.8981 8.08048L14 10.3291L1.58316 5.59497L14 0.860874L17.0599 2.02768C17.2742 2.10929 17.5147 2.00183 17.5968 1.78714C17.6786 1.57267 17.5709 1.33234 17.3562 1.25052L14.1483 0.0273171C14.0528 -0.00899879 13.9472 -0.00921245 13.8517 0.0273171L0.26767 5.20639C0.106598 5.26792 0 5.42258 0 5.59497V7.49408C0 7.66648 0.106598 7.82114 0.26767 7.88266L4.50958 9.49979V10.9409C4.50958 11.1705 4.69565 11.3568 4.92529 11.3568C5.15515 11.3568 5.34122 11.1705 5.34122 10.9409V9.81702L13.8517 13.0617C13.8996 13.0799 13.9498 13.0891 14 13.0891C14.0502 13.0891 14.1004 13.0799 14.1483 13.0617L20.5634 10.616V17.1973C18.5493 18.2545 16.2909 18.821 14 18.821C10.8734 18.821 7.80664 17.767 5.34122 15.8489V12.6044C5.34122 12.3747 5.15515 12.1884 4.92529 12.1884C4.69565 12.1884 4.50958 12.3747 4.50958 12.6044V16.0503C4.50958 16.1766 4.56683 16.296 4.66531 16.3748C7.30377 18.4886 10.619 19.6527 14 19.6527C16.2802 19.6527 18.5301 19.1224 20.5634 18.1293V19.8124C19.8932 19.9955 19.3991 20.6093 19.3991 21.3366C19.3991 22.2078 20.1079 22.9168 20.9791 22.9168C21.8504 22.9168 22.5592 22.2078 22.5592 21.3366C22.5592 20.6093 22.0651 19.9955 21.395 19.8124V17.6901C22.0728 17.3045 22.7222 16.8657 23.3349 16.3748C23.4334 16.296 23.4908 16.1766 23.4908 16.0503V9.49958L27.7323 7.88245C27.8934 7.82114 28 7.66648 28 7.49387V5.59497C28 5.42258 27.8934 5.26792 27.7323 5.20639ZM21.7276 21.3366C21.7276 21.7491 21.3918 22.085 20.9791 22.085C20.5666 22.085 20.2307 21.7491 20.2307 21.3366C20.2307 20.9239 20.5666 20.5881 20.9791 20.5881C21.3918 20.5881 21.7276 20.9239 21.7276 21.3366ZM0.831635 6.19867L13.5841 11.0607V12.0695L0.831635 7.2074V6.19867ZM14.4159 12.0695V11.0607L20.5634 8.71686V9.7258L14.4159 12.0695ZM22.659 15.8487C22.2533 16.1644 21.831 16.4562 21.395 16.7241V10.2987L22.659 9.81681V15.8487ZM21.395 9.40857V8.39985L27.1684 6.19867V7.2074L21.395 9.40857Z" fill="black"/>
</svg>
